<svg width="407" height="78" viewBox="0 0 407 78" fill="none" xmlns="http://www.w3.org/2000/svg">
<path d="M22.2517 33.7986C22.151 33.3956 20.0148 33.3619 19.6484 33.3193C18.641 33.2022 17.5662 33.227 16.5539 33.272C14.5743 33.36 12.6752 33.8247 10.8146 34.4849C6.7776 35.9174 3.51355 38.9965 2.09926 43.0879C1.45166 44.9613 1.16441 46.8406 1.16441 48.8212C1.16441 50.4367 0.833059 52.1487 1.11116 53.7617C1.39338 55.3986 1.44725 57.1171 1.95726 58.72C2.18366 59.4315 2.3292 60.2225 2.48976 60.9565C2.6678 61.7704 2.97333 62.3496 3.34178 63.0865C4.16303 64.729 5.50286 65.5287 7.15217 66.1988C8.69342 66.8249 10.2442 66.9878 11.8146 67.4531C12.7568 67.7323 13.9683 67.7726 14.9505 67.7726C16.2225 67.7726 17.5876 67.9156 18.8437 67.7194C19.7109 67.5839 20.5715 67.5434 21.4352 67.3466C22.391 67.1288 23.3223 66.6781 24.2516 66.3644C25.7055 65.8737 26.8565 65.2711 28.062 64.3291C29.3167 63.3485 30.7552 62.3968 32.1682 61.6665C34.0786 60.6791 35.8843 59.1528 37.5643 57.8088C38.3375 57.1902 39.1019 56.5838 39.718 55.8444" stroke="#707070" stroke-width="2" stroke-linecap="round"/>
<path d="M39.292 56.2704C40.0571 56.2279 41.1882 55.3139 41.7179 54.8031C42.7387 53.8188 43.8744 52.9661 44.8774 51.963C45.9607 50.8798 47.0978 49.8492 48.1849 48.7621C49.2957 47.6513 50.64 46.483 51.5397 45.1943C52.4391 43.906 53.4258 42.5179 54.6282 41.4904C56.3762 39.9967 57.8636 38.4938 59.2078 36.6268C59.6109 36.067 60.1392 35.6681 60.4977 35.0707C61.0628 34.1288 61.8462 33.3313 62.4029 32.3727C63.0281 31.2959 63.9596 30.4517 64.6394 29.432" stroke="#707070" stroke-width="2" stroke-linecap="round"/>
<path d="M64.1191 29.897C64.424 29.321 64.9808 28.7943 65.5039 28.4068C66.1869 27.9009 66.5689 27.0574 67.2049 26.5102C68.9403 25.0169 70.8634 23.215 72.0818 21.2569C73.3163 19.2729 74.6044 17.218 76.0406 15.3714C76.8309 14.3553 79.1033 11.255 78.1931 12.1652C75.8738 14.4845 73.9206 17.5246 73.2032 20.7526C72.8158 22.4959 72.1026 24.1899 71.8485 25.9683C71.5489 28.0659 71.5099 30.2152 71.269 32.3355C71.1372 33.4955 70.844 34.6169 70.5916 35.7524C70.4634 36.3297 70.3607 37.0895 70.11 37.6189C69.4612 38.9885 69.3385 40.752 68.8907 42.1948C68.665 42.922 68.6722 43.747 68.4542 44.4978C68.2025 45.3648 68.0729 46.2809 67.7768 47.132C66.9996 49.3664 67.2438 51.8485 66.5576 54.0787C66.3744 54.6742 66.2867 55.3506 66.2867 55.9753C66.2867 57.0736 65.9873 58.1992 65.8878 59.2943C65.7874 60.3987 65.5128 61.454 65.3308 62.5457C65.1567 63.5905 64.5479 64.556 64.3223 65.5938C63.9964 67.093 63.5772 68.3889 63.5772 69.9289C63.5772 70.3293 64.0316 71.937 63.5772 72.1641" stroke="#707070" stroke-width="2" stroke-linecap="round"/>
<path d="M62.8999 72.706C62.8999 71.021 63.2203 69.469 63.5697 67.8968C63.7148 67.2439 63.8025 66.593 63.9535 65.9324C64.2056 64.8296 64.1543 63.5828 64.5255 62.5155C64.7378 61.9053 64.7412 61.0907 64.7889 60.4458C64.861 59.4734 65.0674 58.5103 65.0674 57.5332C65.0674 55.0783 64.6583 52.9097 63.9234 50.5715C62.9151 47.3631 61.9722 43.3443 59.5055 40.8777C58.2978 39.67 57.1081 38.4762 55.7199 37.4533C54.927 36.869 53.9614 35.9075 53.0104 35.6169C51.9996 35.308 50.8526 34.4228 50.1731 33.63C49.7813 33.1729 48.3516 33.2434 47.7872 33.1408C41.8412 32.0597 35.8178 29.4892 29.7093 30.1679" stroke="#707070" stroke-width="2" stroke-linecap="round"/>
<path d="M90.4237 56.9561C90.4237 56.2076 90.6823 54.9751 90.0429 54.4556C88.6258 53.3042 86.5052 53.2167 84.7642 53.5501C80.5117 54.3644 78.637 58.6781 78.9503 62.595C79.0211 63.4802 79.8783 64.2048 80.463 64.7765C81.8455 66.1283 83.2803 66.7727 85.2375 66.7727C87.2068 66.7727 89.4697 66.3282 91.2469 65.4762C93.0314 64.6206 94.4287 63.3394 96.0214 62.1834C97.6107 61.0299 98.4839 59.5236 99.5098 57.8822C100.454 56.3718 101.633 54.9158 102.741 53.5192C104.037 51.8855 105.026 49.9112 106.157 48.1581C106.707 47.3055 107.058 46.3969 107.639 45.5547C108.162 44.7958 108.691 43.9184 109.038 43.0646C110.292 39.9794 112.614 36.907 113.247 33.6183C113.805 30.7138 114.308 27.6554 113.803 24.6866C113.619 23.6073 114.161 21.6843 113.021 20.9513C111.693 20.0976 108.869 22.1712 107.927 22.8138C103.105 26.1049 100.966 31.197 98.9438 36.3966C98.2366 38.2152 98.0805 40.152 97.4209 41.9532C96.8992 43.378 96.6405 44.8038 96.3919 46.2956C95.911 49.1812 94.5754 51.7111 93.6136 54.4041C93.0861 55.881 92.4608 57.4218 92.2862 58.9935C92.1153 60.5315 92.2759 62.1668 92.2759 63.7166C92.2759 64.7585 92.1826 65.822 92.6052 66.7727C93.4354 68.6409 96.7855 69.3276 98.5734 69.551" stroke="#707070" stroke-width="2" stroke-linecap="round"/>
<path d="M97.6473 70.4771C99.9752 70.4771 101.994 69.8969 103.718 68.2957C104.647 67.4333 105.517 66.3727 106.63 65.754C107.413 65.319 108.773 64.4545 109.316 63.7681C109.873 63.0652 110.844 62.3855 111.539 61.813C112.407 61.0976 113.117 60.1533 113.659 59.1684C114.255 58.0848 114.53 56.6419 114.307 55.4126C114.258 55.1417 113.829 55.4341 113.772 55.1759C113.703 54.8651 113.831 54.5622 113.669 54.2704C113.32 53.6426 113.079 53.2722 112.208 53.2722C111.927 53.2722 112.867 54.9506 113.021 55.1039C113.903 55.9867 115.705 56.1847 116.869 56.3593C117.48 56.4509 118.879 56.6033 119.411 56.3078C120.136 55.9047 121.13 55.6784 121.921 55.3817C123.009 54.9737 123.973 54.284 125.019 53.8485C125.498 53.6487 124.7 54.7261 124.545 55.145C124.268 55.8951 123.935 56.6129 123.578 57.3265C122.516 59.4509 121.79 61.6147 120.892 63.8092C120.196 65.5106 119.65 67.3219 118.906 68.9954C118.485 69.9431 117.921 71.6774 118.69 72.6175C119.515 73.6257 122.112 73.7021 123.28 73.6156C124.7 73.5104 125.729 72.4214 126.552 71.393C127.488 70.2228 128.229 68.9603 129.042 67.7091C129.795 66.5506 130.815 65.4257 131.131 64.0356C131.515 62.3449 132.259 60.671 132.839 59.0758C133.398 57.5384 134.691 55.867 134.691 54.1778" stroke="#707070" stroke-width="2" stroke-linecap="round"/>
<path d="M134.877 40.8419C134.877 41.561 134.796 45.243 136.183 44.8962C137.292 44.6189 138.21 43.4414 138.21 42.3237C138.21 41.5464 136.653 40.8129 135.988 41.3358C135.226 41.9347 135.432 43.1419 135.432 43.9907" stroke="#707070" stroke-width="2" stroke-linecap="round"/>
<path d="M129.135 68.2545C129.135 69.9762 129.32 71.8207 129.32 73.4407" stroke="#707070" stroke-width="2" stroke-linecap="round"/>
<path d="M130.25 60.1838C130.213 61.1523 129.638 62.055 129.324 62.9621C129.026 63.8244 128.954 64.501 128.954 65.4111C128.954 66.2869 129.186 67.0246 129.695 67.7367C130.532 68.9093 131.999 68.5509 133.296 68.5084C134.537 68.4677 135.802 68.5659 136.558 67.4794C137.124 66.6658 137.616 65.6836 138.04 64.7834C138.961 62.8253 139.733 60.7931 140.612 58.8152C141.051 57.8286 141.406 56.4195 142.146 55.5944C144.121 53.3909 145.535 50.7977 148.69 49.9144C150.231 49.483 155.044 49.2558 153.444 49.2558C152.409 49.2558 151.21 49.4177 150.172 49.7086C148.61 50.1458 147.223 50.4117 145.716 51.0257C144.565 51.4945 143.289 51.9819 142.393 52.8779C141.758 53.5128 141.285 54.4537 140.767 55.1828C139.374 57.1433 139.645 58.8998 140.067 61.151C140.535 63.6488 141.212 65.5891 143.031 67.4074C145.52 69.8971 149.462 69.2016 152.271 67.6749C154.401 66.5173 155.852 63.5695 156.325 61.2539C156.623 59.7986 156.366 58.0629 156.366 56.572C156.366 55.5725 155.44 54.6386 155.44 53.7011" stroke="#707070" stroke-width="2" stroke-linecap="round"/>
<path d="M155.992 68.6249V68.8102" stroke="#707070" stroke-width="2" stroke-linecap="round"/>
<path d="M156.856 61.6988V61.883" stroke="#707070" stroke-width="2" stroke-linecap="round"/>
<path d="M157.024 61.293C156.962 62.4105 156.581 65.4558 158.539 65.5283C160.447 65.599 161.39 65.1948 162.917 64.1575C165.503 62.4009 168.052 60.1799 170.099 57.8352C171.478 56.2553 172.771 54.6185 174.109 53.0065C174.207 52.8883 174.715 52.0808 174.61 52.2904C174.497 52.5178 174.451 52.8393 174.242 53.0065C174.013 53.1895 173.851 53.9123 173.69 54.2034C173.342 54.8286 172.983 55.4252 172.595 56.0346C171.811 57.2663 170.689 58.5636 170.283 59.9835C169.931 61.2136 169.73 62.2759 169.73 63.5948C169.73 64.4852 169.279 65.4085 168.994 66.2649" stroke="#707070" stroke-width="2" stroke-linecap="round"/>
<path d="M169.01 67.5915V72.5634" stroke="#707070" stroke-width="2" stroke-linecap="round"/>
<path d="M169.01 71.2744C169.167 70.485 170.223 69.8844 170.667 69.2488C171.325 68.3061 171.867 67.389 172.785 66.6707C174.234 65.5365 175.813 63.453 177.849 63.3561C179.208 63.2914 181.612 62.9852 182.35 64.461C182.746 65.2538 182.499 66.1337 182.677 66.9572C182.783 67.4465 182.993 68.1271 182.728 68.6043C182.336 69.3112 182.233 70.444 181.941 71.2334C181.64 72.0455 181.531 72.5132 181.531 73.4023C181.531 74.8601 182.612 75.1755 183.823 75.1414C186.116 75.0768 188.381 73.4429 190.063 72.0109C191.439 70.84 191.501 69.5389 192.028 67.9597" stroke="#707070" stroke-width="2" stroke-linecap="round"/>
<path d="M235.391 43.7271C233.675 42.1823 230.288 43.4435 228.691 44.4739C226.854 45.6587 226 47.6882 226 49.8448C226 52.8538 229.593 54.1337 232.015 54.2132C236.437 54.3581 240.6 54.0255 244.333 51.451C251.812 46.2927 257.662 39.2478 261.683 31.2053C262.721 29.1304 263.322 27.0247 264.046 24.8523C264.753 22.7333 265.371 20.1672 265.407 17.9059C265.451 15.1969 265.629 12.703 264.394 10.2332C263.974 9.3919 263.189 9.0578 262.42 8.59637C261.334 7.94487 260.704 6.91888 259.78 6.06949C258.722 5.0959 257.379 4.50447 256.21 3.68583C255.344 3.07969 254.479 2.63414 253.438 2.43774C252.389 2.23986 251.406 1.86138 250.348 1.70116C248.23 1.38018 246.106 1.33437 243.975 1.09757C241.101 0.77828 237.927 1.25945 235.248 2.29452C233.806 2.85157 231.905 4.64 231.524 6.16156" stroke="#707070" stroke-width="2" stroke-linecap="round"/>
<path d="M238.471 16C237.802 16.0836 237.214 18.9784 237.1 19.4988C236.646 21.5633 236.365 23.7391 236.271 25.8518C236.112 29.4288 236.261 33.045 236.261 36.6242C236.261 40.1194 235.525 43.6187 235.33 47.1205C235.23 48.9272 234.717 50.7582 234.276 52.5016C233.852 54.1835 234.127 56.0123 233.54 57.6577C233.176 58.6751 232.578 59.616 232.578 60.737C232.578 61.4283 232.449 62.0018 232.302 62.6808C231.903 64.5155 231.827 66.4556 231.248 68.2563C230.9 69.3396 230.89 70.6435 230.747 71.7857C230.567 73.2222 230 74.7791 230 76.2154" stroke="#707070" stroke-width="2" stroke-linecap="round"/>
<path d="M257.994 54.7041C256.654 54.7041 255.493 56.581 254.781 57.5481C253.723 58.9856 253.052 60.8501 252.326 62.4791C251.46 64.4222 251.089 66.5043 251.006 68.6173C250.762 74.8625 257.518 73.6226 261.758 72.8424C264.134 72.4053 267.871 72.1622 269.493 70.0495C270.967 68.1283 271.443 65.9172 271.805 63.584C272.188 61.1116 272.748 58.4201 271.068 56.3205C269.499 54.3595 265.916 52.6756 263.436 52.5046C261.541 52.3739 259.797 52.553 258.383 53.9675C257.036 55.3145 258.242 56.7459 259.508 57.4663C261.731 58.732 264.159 59.2729 266.649 59.6351C269.044 59.9835 271.844 60.0562 274.178 59.3998C275.905 58.9141 277.523 57.9813 278.608 56.5353C279.241 55.6913 279.836 53.8746 279.498 52.8217C278.978 51.2036 276.17 50.9092 274.751 51.0212C273.889 51.0892 273.111 52.0911 273.094 52.9036C273.056 54.6735 274.167 55.7052 275.702 56.4432C277.413 57.2655 279.469 57.5618 281.349 57.6402C282.123 57.6724 282.679 57.8414 283.13 57.19C283.812 56.204 284.46 55.0645 285.431 54.3358" stroke="#707070" stroke-width="2" stroke-linecap="round"/>
<path d="M285 57.7709C286.152 57.5615 287.155 56.5368 287.946 55.7454C288.209 55.4823 288.547 55.2381 288.867 55.0497C289.231 54.8354 288.804 55.3694 288.724 55.6021C288.398 56.5439 287.982 57.4957 287.578 58.4052C286.973 59.766 286.86 61.4675 286.616 62.927C286.3 64.8226 285.982 66.7582 285.921 68.6764C285.863 70.5061 285.232 72.4312 286.514 73.9757C288.877 76.8224 291.324 76.676 294.76 75.8172C296.892 75.284 299.478 74.8652 301.164 73.3414C302.837 71.8292 304.07 69.7969 305.256 67.8989" stroke="#707070" stroke-width="2" stroke-linecap="round"/>
<path d="M322.088 56.3965C322.508 55.1361 323.009 54.3688 323.009 53.0001C323.009 52.0543 322.973 51.1886 322.538 50.3198C321.376 47.9954 317.695 47.6954 315.469 48.2225C312.716 48.8746 310.747 51.1015 310.477 53.8083C310.336 55.2136 309.954 56.8603 309.382 58.1459C308.923 59.1787 309.014 60.99 309.014 62.105C309.014 63.5108 308.788 65.9277 310.16 66.8928C311.309 67.7015 312.821 67.4659 314.109 67.2202C316.002 66.8587 318.151 66.5502 319.326 64.8672C320.618 63.0168 321.536 61.856 321.536 59.527" stroke="#707070" stroke-width="2" stroke-linecap="round"/>
<path d="M319.921 67.0086C319.019 67.209 319 69.3508 319 70.0368C319 70.931 319.431 72.012 320.197 72.5227C321.381 73.3122 323.488 73.107 324.852 73.0854C326.578 73.058 328.04 72.1591 329.271 71.0189C331.054 69.368 332.56 67.2797 334.304 65.5354C335.839 64.0009 337.427 62.4535 338.744 60.7067C339.325 59.9365 340.074 59.2487 340.77 58.5788C341.121 58.2408 341.528 57.7937 340.729 58.1696C339.845 58.5856 339.151 59.2908 338.704 60.185C338.009 61.574 336.716 63.0306 335.675 64.1543C334.169 65.7811 333.215 68.7768 333.588 70.9779C333.776 72.0806 334.83 72.5715 335.839 72.6762C338.078 72.9085 340.366 73.0762 342.571 72.5329C344.448 72.0701 346.306 71.3551 347.696 69.9651C348.58 69.0813 348.683 68.0094 348.831 66.8244C349.103 64.6528 349.639 62.6179 348.924 60.4714C348.722 59.8654 348.53 59.1399 348.054 58.6811C347.363 58.0162 346.197 58.0877 345.374 57.6581C343.558 56.7107 341.222 57.0648 339.256 57.0648" stroke="#707070" stroke-width="2" stroke-linecap="round"/>
<path d="M348.097 70.2798C348.097 66.4029 349.452 63.0859 351.606 59.8551C354.379 55.6948 356.895 51.2109 358.593 46.4842C359.406 44.22 359.892 41.9831 360.342 39.6299C360.582 38.3816 360.71 37.1475 360.844 35.8856C360.932 35.0547 361.203 34.0017 360.793 33.2155C360.215 32.1087 357.434 35.6021 357.018 36.0697C355.121 38.1982 354.23 40.6311 353.437 43.2923C352.305 47.0933 351.094 51.0204 350.532 54.9548C350.401 55.87 350.409 56.8494 350.317 57.7682C350.225 58.6886 350.122 59.6805 350.122 60.602C350.122 62.0514 349.652 63.6608 349.427 65.1237C348.998 67.9108 347.073 71.8491 348.547 74.5867C348.979 75.3899 350.321 75.2517 351.084 75.2517C352.775 75.2517 354.382 75.5079 355.831 74.5151C357.044 73.6843 357.985 72.414 358.777 71.1903C359.877 69.4913 361.188 67.8522 362.092 66.0445C362.697 64.8339 363.409 63.6447 363.933 62.4025C364.255 61.6417 365.202 59.4488 365.202 60.2746C365.202 61.1276 363.876 62.2415 363.606 63.0981C363.198 64.3901 362.378 65.5124 361.908 66.781C361.141 68.8513 358.931 71.014 360.527 73.3182C361.942 75.3623 365.335 75.803 367.616 75.4972C369.645 75.2254 373.293 74.0888 373.877 71.753" stroke="#707070" stroke-width="2" stroke-linecap="round"/>
<path d="M367.291 49C366.349 49 366.038 49.9458 366.002 50.8005C365.964 51.6817 366.538 51.7135 367.332 51.5371C368.883 51.1923 368.648 50.0349 368.027 49" stroke="#707070" stroke-width="2" stroke-linecap="round"/>
<path d="M374 70.2332C374.043 69.5391 375.114 68.572 375.514 68.0235C376.325 66.9123 377.021 65.8106 377.959 64.7907C379.123 63.5253 380.252 61.9872 381.079 60.4837C381.676 59.3992 382.537 58.4637 383.064 57.343C383.864 55.643 381.147 60.7174 381.008 62.5912C380.892 64.1515 380.813 65.7203 380.813 67.2869C380.813 68.3253 381.55 69.208 381.55 70.2332" stroke="#707070" stroke-width="2" stroke-linecap="round"/>
<path d="M383 69.9433C383.913 67.2044 385.853 64.3282 387.89 62.2911C388.884 61.2976 389.849 60.2612 390.877 59.3038C391.649 58.5857 393.412 59.32 394.192 59.6721C397.016 60.9475 395.522 64.7809 395.522 66.997C395.522 67.9409 395.453 69.1844 395.061 70.0456C394.795 70.631 394.521 72.0946 394.826 72.7055C395.257 73.5662 397.148 74.3689 398.008 74.6185C398.946 74.8908 399.883 74.8022 400.678 74.2605C403.01 72.6705 404.267 70.2233 405.65 67.9177" stroke="#707070" stroke-width="2" stroke-linecap="round"/>
</svg>
